<svg xmlns="http://www.w3.org/2000/svg" xmlns:xlink="http://www.w3.org/1999/xlink" width="500" zoomAndPan="magnify" viewBox="0 0 375 374.999991" height="500" preserveAspectRatio="xMidYMid meet" version="1.0"><defs><g/><clipPath id="4d6b429255"><path d="M 109.738281 79.957031 L 265.261719 79.957031 L 265.261719 235.480469 L 109.738281 235.480469 Z M 109.738281 79.957031 " clip-rule="nonzero"/></clipPath><clipPath id="5bc1ecb59b"><path d="M 187.5 79.957031 C 144.554688 79.957031 109.738281 114.773438 109.738281 157.71875 C 109.738281 200.664062 144.554688 235.480469 187.5 235.480469 C 230.445312 235.480469 265.261719 200.664062 265.261719 157.71875 C 265.261719 114.773438 230.445312 79.957031 187.5 79.957031 " clip-rule="nonzero"/></clipPath><clipPath id="7013119dcd"><path d="M 114 96 L 261 96 L 261 245 L 114 245 Z M 114 96 " clip-rule="nonzero"/></clipPath><clipPath id="c29704b5d9"><path d="M 96.394531 180.574219 L 187.613281 89.359375 L 278.300781 180.046875 L 187.082031 271.261719 Z M 96.394531 180.574219 " clip-rule="nonzero"/></clipPath><clipPath id="34b7650e8f"><path d="M 96.394531 180.574219 L 187.613281 89.359375 L 278.300781 180.046875 L 187.082031 271.261719 Z M 96.394531 180.574219 " clip-rule="nonzero"/></clipPath><clipPath id="433efa48e3"><path d="M 96.394531 180.574219 L 187.613281 89.359375 L 278.300781 180.046875 L 187.082031 271.261719 Z M 96.394531 180.574219 " clip-rule="nonzero"/></clipPath><clipPath id="5f4220896c"><path d="M 173.5625 143.957031 L 201.3125 143.957031 L 201.3125 171.707031 L 173.5625 171.707031 Z M 173.5625 143.957031 " clip-rule="nonzero"/></clipPath><clipPath id="70dc5c4b8a"><path d="M 174 143.957031 L 201 143.957031 L 201 154 L 174 154 Z M 174 143.957031 " clip-rule="nonzero"/></clipPath><clipPath id="356c1156fe"><path d="M 174 162 L 201 162 L 201 171.707031 L 174 171.707031 Z M 174 162 " clip-rule="nonzero"/></clipPath></defs><rect x="-37.5" width="450" fill="#ffffff" y="-37.499999" height="449.999989" fill-opacity="1"/><rect x="-37.5" width="450" fill="#ffffff" y="-37.499999" height="449.999989" fill-opacity="1"/><rect x="-37.5" width="450" fill="#ffffff" y="-37.499999" height="449.999989" fill-opacity="1"/><g clip-path="url(#4d6b429255)"><g clip-path="url(#5bc1ecb59b)"><path fill="#008037" d="M 109.738281 79.957031 L 265.261719 79.957031 L 265.261719 235.480469 L 109.738281 235.480469 Z M 109.738281 79.957031 " fill-opacity="1" fill-rule="nonzero"/></g></g><g clip-path="url(#7013119dcd)"><g clip-path="url(#c29704b5d9)"><g clip-path="url(#34b7650e8f)"><g clip-path="url(#433efa48e3)"><path fill="#ffffff" d="M 114.457031 198.203125 L 114.277344 190.753906 C 114.285156 186.496094 118.605469 183.648438 118.605469 183.648438 L 130.703125 174.460938 L 130.828125 163.808594 C 130.882812 158.1875 137.703125 159.878906 138.058594 162.464844 L 138.5 168.441406 L 152.078125 159.097656 L 151.445312 150.683594 C 150.640625 141.566406 158.203125 142.941406 158.957031 147.449219 L 159.617188 153.132812 L 179.074219 138.15625 C 179.664062 109.136719 179.8125 97.191406 187.210938 96.800781 C 194.65625 96.40625 194.75 110.371094 195.125 137.722656 L 215.273438 152.972656 L 215.882812 146.367188 C 216.242188 142.464844 222.863281 141.523438 222.652344 149.121094 L 222.359375 158.753906 L 236.039062 168.246094 L 236.761719 162.769531 C 237.324219 157.851562 243.523438 157.410156 243.769531 165.054688 L 243.796875 174.929688 C 243.742188 175.285156 255.566406 183.488281 255.566406 183.488281 C 261.589844 187.277344 260.605469 191.84375 260.605469 191.84375 L 260.167969 198.167969 L 211.097656 174.800781 C 206.84375 172.679688 200.683594 171.917969 196.585938 176.835938 C 194.457031 179.46875 192.492188 189.542969 192.640625 191.320312 L 192.078125 218.625 C 191.972656 219.234375 211.605469 233.867188 211.605469 233.867188 C 212.109375 234.371094 213.472656 244.570312 213.472656 244.570312 L 188.957031 237.71875 L 186.621094 244.101562 L 185.210938 237.59375 L 160.355469 244.535156 L 161.96875 234.222656 C 165.464844 232.042969 182.019531 218.828125 182.171875 218.371094 C 182.171875 218.371094 182.296875 194.25 182.265625 192.835938 C 182.070312 184.628906 181.847656 181.710938 180.382812 179.03125 C 178.914062 176.34375 174.835938 174.339844 164.699219 176.777344 C 150.71875 180.132812 114.457031 198.203125 114.457031 198.203125 Z M 114.457031 198.203125 " fill-opacity="1" fill-rule="nonzero"/></g></g></g></g><g clip-path="url(#5f4220896c)"><path fill="#ffffff" d="M 201.300781 157.839844 C 201.300781 165.507812 195.09375 171.722656 187.433594 171.722656 C 179.777344 171.722656 173.570312 165.507812 173.570312 157.839844 C 173.570312 150.171875 179.777344 143.957031 187.433594 143.957031 C 195.09375 143.957031 201.300781 150.171875 201.300781 157.839844 Z M 201.300781 157.839844 " fill-opacity="1" fill-rule="nonzero"/></g><g clip-path="url(#70dc5c4b8a)"><path fill="#ff6600" d="M 187.433594 143.957031 C 181.566406 143.960938 176.332031 147.664062 174.375 153.203125 L 200.503906 153.203125 C 198.542969 147.664062 193.308594 143.957031 187.433594 143.957031 Z M 187.433594 143.957031 " fill-opacity="1" fill-rule="nonzero"/></g><path fill="#0000ff" d="M 186.765625 162.261719 C 185.722656 162.0625 185.027344 161.71875 184.367188 161.074219 C 183.800781 160.519531 183.4375 159.910156 183.191406 159.101562 C 183.078125 158.714844 183.066406 158.621094 183.066406 157.914062 C 183.066406 157.207031 183.078125 157.109375 183.191406 156.726562 C 183.664062 155.164062 184.773438 154.070312 186.289062 153.664062 C 186.871094 153.507812 187.847656 153.507812 188.445312 153.664062 C 189.925781 154.054688 191.070312 155.1875 191.53125 156.726562 C 191.648438 157.109375 191.660156 157.207031 191.660156 157.914062 C 191.660156 158.617188 191.648438 158.714844 191.53125 159.101562 C 191.070312 160.644531 189.949219 161.757812 188.460938 162.152344 C 188.085938 162.253906 187.058594 162.320312 186.765625 162.261719 Z M 187.660156 161.691406 C 187.769531 161.476562 188 161.433594 188.175781 161.601562 C 188.261719 161.683594 188.304688 161.695312 188.429688 161.660156 C 188.539062 161.625 188.585938 161.582031 188.613281 161.464844 C 188.636719 161.382812 188.707031 161.28125 188.773438 161.234375 C 188.882812 161.160156 188.898438 161.160156 189.027344 161.234375 C 189.199219 161.335938 189.230469 161.335938 189.382812 161.222656 C 189.484375 161.152344 189.503906 161.105469 189.488281 160.996094 C 189.457031 160.777344 189.617188 160.644531 189.871094 160.683594 C 190.046875 160.710938 190.078125 160.699219 190.160156 160.59375 C 190.234375 160.496094 190.246094 160.445312 190.210938 160.351562 C 190.148438 160.183594 190.160156 160.113281 190.261719 160.011719 C 190.316406 159.953125 190.414062 159.917969 190.511719 159.917969 C 190.644531 159.917969 190.683594 159.890625 190.746094 159.773438 C 190.8125 159.644531 190.8125 159.621094 190.746094 159.519531 C 190.601562 159.292969 190.671875 159.121094 190.957031 158.996094 C 191.035156 158.960938 191.089844 158.894531 191.109375 158.796875 C 191.136719 158.679688 191.121094 158.632812 191.023438 158.542969 C 190.828125 158.359375 190.859375 158.214844 191.152344 157.96875 C 191.273438 157.871094 191.234375 157.722656 191.039062 157.539062 C 190.824219 157.339844 190.816406 157.269531 190.976562 157.078125 C 191.085938 156.949219 191.089844 156.921875 191.039062 156.773438 C 191 156.644531 190.964844 156.609375 190.878906 156.609375 C 190.734375 156.609375 190.582031 156.457031 190.582031 156.316406 C 190.582031 156.257812 190.613281 156.160156 190.65625 156.101562 C 190.726562 156 190.722656 155.984375 190.640625 155.871094 C 190.589844 155.804688 190.5 155.742188 190.4375 155.734375 C 190.191406 155.703125 190.128906 155.671875 190.078125 155.542969 C 190.039062 155.445312 190.035156 155.378906 190.070312 155.3125 C 190.109375 155.238281 190.101562 155.195312 190.023438 155.09375 C 189.933594 154.980469 189.902344 154.972656 189.722656 155 C 189.550781 155.027344 189.511719 155.015625 189.40625 154.910156 C 189.328125 154.832031 189.296875 154.761719 189.316406 154.703125 C 189.335938 154.640625 189.304688 154.585938 189.21875 154.515625 C 189.070312 154.398438 189.003906 154.394531 188.851562 154.496094 C 188.699219 154.597656 188.53125 154.519531 188.441406 154.304688 C 188.386719 154.175781 188.339844 154.136719 188.210938 154.113281 C 188.078125 154.089844 188.027344 154.101562 187.941406 154.179688 C 187.796875 154.320312 187.628906 154.304688 187.484375 154.140625 C 187.308594 153.941406 187.132812 153.949219 186.972656 154.160156 C 186.832031 154.351562 186.695312 154.371094 186.515625 154.226562 C 186.410156 154.144531 186.375 154.140625 186.238281 154.183594 C 186.140625 154.21875 186.066406 154.277344 186.046875 154.339844 C 185.976562 154.578125 185.773438 154.671875 185.570312 154.558594 C 185.4375 154.488281 185.179688 154.683594 185.167969 154.863281 C 185.152344 155.050781 184.992188 155.175781 184.820312 155.136719 C 184.613281 155.09375 184.460938 155.257812 184.46875 155.519531 C 184.480469 155.757812 184.414062 155.851562 184.199219 155.890625 C 183.992188 155.929688 183.859375 156.171875 183.953125 156.347656 C 184.039062 156.511719 183.980469 156.679688 183.800781 156.785156 C 183.59375 156.910156 183.542969 157.117188 183.675781 157.289062 C 183.808594 157.457031 183.796875 157.554688 183.636719 157.742188 C 183.558594 157.832031 183.496094 157.945312 183.496094 158 C 183.496094 158.054688 183.558594 158.167969 183.636719 158.246094 C 183.789062 158.410156 183.8125 158.582031 183.703125 158.742188 C 183.589844 158.902344 183.671875 159.128906 183.875 159.230469 C 184.074219 159.324219 184.121094 159.441406 184.042969 159.660156 C 183.992188 159.804688 183.996094 159.835938 184.078125 159.953125 C 184.140625 160.035156 184.234375 160.089844 184.347656 160.109375 C 184.554688 160.144531 184.597656 160.207031 184.601562 160.460938 C 184.601562 160.71875 184.753906 160.851562 185.003906 160.816406 C 185.207031 160.789062 185.320312 160.882812 185.34375 161.101562 C 185.355469 161.199219 185.402344 161.265625 185.503906 161.324219 C 185.640625 161.40625 185.65625 161.40625 185.785156 161.328125 C 185.96875 161.222656 186.144531 161.296875 186.234375 161.519531 C 186.324219 161.738281 186.535156 161.78125 186.726562 161.617188 C 186.90625 161.460938 186.980469 161.46875 187.148438 161.660156 C 187.339844 161.875 187.558594 161.890625 187.65625 161.691406 Z M 187.347656 160.546875 C 187.289062 160.214844 187.289062 158.996094 187.347656 158.9375 C 187.386719 158.898438 187.40625 158.898438 187.4375 158.945312 C 187.480469 159.015625 187.464844 160.28125 187.414062 160.546875 L 187.378906 160.730469 Z M 186.671875 160.535156 C 186.667969 160.15625 187.03125 158.847656 187.140625 158.847656 C 187.207031 158.847656 187.132812 159.210938 186.9375 159.871094 C 186.734375 160.554688 186.675781 160.707031 186.671875 160.535156 Z M 187.859375 159.964844 C 187.640625 159.277344 187.554688 158.847656 187.625 158.847656 C 187.648438 158.847656 187.699219 158.917969 187.742188 159.007812 C 187.839844 159.210938 188.113281 160.441406 188.085938 160.554688 C 188.078125 160.601562 187.972656 160.335938 187.859375 159.964844 Z M 188.363281 159.773438 C 188.007812 159.21875 187.789062 158.773438 187.839844 158.71875 C 187.914062 158.640625 188.820312 160.210938 188.777344 160.34375 C 188.765625 160.375 188.582031 160.117188 188.363281 159.773438 Z M 186 160.261719 C 186.089844 160.015625 186.691406 158.933594 186.789062 158.84375 C 187.046875 158.597656 186.851562 159.082031 186.429688 159.738281 C 186.101562 160.253906 185.921875 160.46875 186 160.261719 Z M 185.386719 159.929688 C 185.398438 159.898438 185.605469 159.648438 185.847656 159.371094 C 186.261719 158.898438 186.640625 158.566406 186.699219 158.625 C 186.75 158.675781 186.5625 158.894531 186.082031 159.34375 C 185.464844 159.917969 185.367188 160 185.386719 159.929688 Z M 188.785156 159.429688 C 188.285156 158.964844 187.980469 158.621094 188.027344 158.578125 C 188.039062 158.5625 188.121094 158.601562 188.207031 158.65625 C 188.449219 158.808594 189.386719 159.839844 189.332031 159.894531 C 189.316406 159.910156 189.070312 159.699219 188.785156 159.429688 Z M 184.945312 159.320312 C 185.0625 159.203125 186.113281 158.546875 186.316406 158.46875 C 186.847656 158.253906 186.472656 158.578125 185.722656 158.980469 C 185.136719 159.292969 184.851562 159.417969 184.945312 159.320312 Z M 189.109375 158.996094 C 188.527344 158.695312 188.191406 158.464844 188.191406 158.375 C 188.191406 158.292969 188.589844 158.492188 189.191406 158.882812 C 189.527344 159.097656 189.800781 159.28125 189.800781 159.292969 C 189.800781 159.34375 189.660156 159.285156 189.109375 158.996094 Z M 184.695312 158.636719 C 184.695312 158.597656 186.003906 158.195312 186.226562 158.164062 C 186.484375 158.128906 186.507812 158.191406 186.277344 158.300781 C 185.996094 158.4375 184.695312 158.714844 184.695312 158.636719 Z M 189.292969 158.496094 C 188.632812 158.34375 188.28125 158.214844 188.28125 158.132812 C 188.28125 158.105469 188.375 158.101562 188.5 158.121094 C 188.765625 158.160156 190.019531 158.558594 190.058594 158.617188 C 190.09375 158.679688 190.027344 158.667969 189.292969 158.496094 Z M 187.074219 158.398438 C 186.722656 158.207031 186.730469 157.609375 187.085938 157.425781 C 187.363281 157.28125 187.714844 157.378906 187.84375 157.632812 C 188.105469 158.144531 187.578125 158.675781 187.078125 158.398438 Z M 184.832031 157.960938 L 184.671875 157.933594 L 184.855469 157.898438 C 184.957031 157.878906 185.296875 157.863281 185.613281 157.855469 C 186.203125 157.847656 186.46875 157.886719 186.34375 157.964844 C 186.269531 158.011719 185.074219 158.011719 184.832031 157.960938 Z M 188.628906 157.976562 C 188.304688 157.910156 188.300781 157.910156 188.386719 157.859375 C 188.480469 157.804688 189.59375 157.808594 189.871094 157.863281 L 190.054688 157.898438 L 189.847656 157.925781 C 189.570312 157.964844 188.742188 157.996094 188.628906 157.976562 Z M 186.144531 157.695312 C 185.933594 157.664062 184.695312 157.253906 184.695312 157.214844 C 184.695312 157.148438 185.953125 157.425781 186.269531 157.5625 C 186.363281 157.601562 186.441406 157.65625 186.441406 157.679688 C 186.441406 157.726562 186.398438 157.730469 186.144531 157.695312 Z M 188.28125 157.648438 C 188.28125 157.566406 188.617188 157.445312 189.234375 157.304688 C 190.109375 157.105469 190.179688 157.152344 189.398438 157.414062 C 188.734375 157.632812 188.28125 157.730469 188.28125 157.648438 Z M 186.328125 157.414062 C 186.089844 157.316406 184.910156 156.558594 184.945312 156.523438 C 184.996094 156.476562 186.21875 157.136719 186.414062 157.316406 C 186.621094 157.507812 186.605469 157.527344 186.328125 157.414062 Z M 188.3125 157.269531 C 188.5 157.101562 189.738281 156.4375 189.78125 156.480469 C 189.816406 156.515625 188.578125 157.304688 188.367188 157.378906 C 188.101562 157.476562 188.097656 157.464844 188.3125 157.269531 Z M 186.433594 157.109375 C 186.21875 156.941406 185.328125 155.953125 185.359375 155.917969 C 185.410156 155.867188 186.570312 156.96875 186.667969 157.15625 C 186.742188 157.304688 186.667969 157.289062 186.433594 157.109375 Z M 188.003906 157.15625 C 188.003906 157.125 188.230469 156.882812 188.5 156.617188 C 189.023438 156.105469 189.367188 155.808594 189.335938 155.894531 C 189.296875 156.003906 188.523438 156.863281 188.3125 157.035156 C 188.078125 157.222656 188.003906 157.253906 188.003906 157.15625 Z M 186.707031 156.9375 C 186.601562 156.8125 186.035156 155.765625 185.964844 155.570312 C 185.902344 155.382812 186.054688 155.574219 186.386719 156.089844 C 186.722656 156.617188 186.945312 157.074219 186.859375 157.074219 C 186.835938 157.074219 186.769531 157.011719 186.707031 156.9375 Z M 187.824219 157.046875 C 187.824219 157.015625 187.851562 156.90625 187.890625 156.800781 C 187.972656 156.566406 188.710938 155.414062 188.734375 155.484375 C 188.757812 155.5625 188.140625 156.734375 187.972656 156.925781 C 187.894531 157.023438 187.824219 157.074219 187.824219 157.046875 Z M 186.976562 156.808594 C 186.890625 156.625 186.625 155.472656 186.628906 155.289062 C 186.628906 155.121094 186.691406 155.273438 186.894531 155.9375 C 187.09375 156.59375 187.167969 156.980469 187.097656 156.980469 C 187.078125 156.980469 187.019531 156.902344 186.976562 156.808594 Z M 187.582031 156.957031 C 187.535156 156.875 187.625 156.457031 187.828125 155.8125 C 188.058594 155.078125 188.109375 155.144531 187.9375 155.964844 C 187.820312 156.53125 187.636719 157.042969 187.582031 156.957031 Z M 187.289062 156.882812 C 187.25 156.8125 187.253906 155.722656 187.300781 155.351562 C 187.328125 155.113281 187.332031 155.105469 187.367188 155.234375 C 187.429688 155.464844 187.4375 156.828125 187.378906 156.890625 C 187.339844 156.929688 187.316406 156.929688 187.289062 156.882812 Z M 187.289062 156.882812 " fill-opacity="1" fill-rule="nonzero"/><g clip-path="url(#356c1156fe)"><path fill="#00aa00" d="M 174.410156 162.574219 C 176.394531 168.0625 181.601562 171.71875 187.433594 171.722656 C 193.265625 171.71875 198.472656 168.0625 200.460938 162.574219 Z M 174.410156 162.574219 " fill-opacity="1" fill-rule="nonzero"/></g><g fill="#000000" fill-opacity="1"><g transform="translate(80.056258, 271.433289)"><g><path d="M 2.28125 0 L 2.28125 -6.234375 L 5.109375 -6.234375 L 5.109375 -21.90625 L 2.28125 -21.90625 L 2.28125 -28.140625 L 16.984375 -28.140625 L 16.984375 -21.90625 L 14.15625 -21.90625 L 14.15625 -6.234375 L 16.984375 -6.234375 L 16.984375 0 Z M 2.28125 0 "/></g></g></g><g fill="#000000" fill-opacity="1"><g transform="translate(98.240049, 271.433289)"><g><path d="M 1.453125 0 L 1.453125 -6.34375 L 4.3125 -6.34375 L 4.3125 -21.953125 L 1.515625 -21.953125 L 1.515625 -28.171875 L 14.53125 -28.171875 L 23.328125 -11.4375 L 23.328125 -21.90625 L 20.5 -21.90625 L 20.5 -28.140625 L 31.765625 -28.140625 L 31.765625 -21.90625 L 28.96875 -21.90625 L 28.96875 0 L 18.25 0 L 9.890625 -15.53125 L 9.890625 -6.34375 L 12.71875 -6.34375 L 12.71875 0 Z M 1.453125 0 "/></g></g></g><g fill="#008037" fill-opacity="1"><g transform="translate(130.974223, 271.433289)"><g><path d="M 1.125 -6.234375 L 3.953125 -6.234375 L 3.953125 -21.90625 L 1.125 -21.90625 L 1.125 -28.140625 L 14.15625 -28.140625 C 19.28125 -28.140625 23.195312 -26.957031 25.90625 -24.59375 C 28.625 -22.226562 29.984375 -18.726562 29.984375 -14.09375 C 29.984375 -9.570312 28.628906 -6.09375 25.921875 -3.65625 C 23.222656 -1.21875 19.289062 0 14.125 0 L 1.125 0 Z M 14.125 -6.234375 C 16.101562 -6.234375 17.546875 -6.972656 18.453125 -8.453125 C 19.359375 -9.941406 19.8125 -11.820312 19.8125 -14.09375 C 19.8125 -16.40625 19.363281 -18.285156 18.46875 -19.734375 C 17.570312 -21.179688 16.125 -21.90625 14.125 -21.90625 L 13 -21.90625 L 13 -6.234375 Z M 14.125 -6.234375 "/></g></g></g><g fill="#008037" fill-opacity="1"><g transform="translate(162.886414, 271.433289)"><g><path d="M 2.28125 0 L 2.28125 -6.234375 L 5.109375 -6.234375 L 5.109375 -21.90625 L 2.28125 -21.90625 L 2.28125 -28.140625 L 16.984375 -28.140625 L 16.984375 -21.90625 L 14.15625 -21.90625 L 14.15625 -6.234375 L 16.984375 -6.234375 L 16.984375 0 Z M 2.28125 0 "/></g></g></g><g fill="#008037" fill-opacity="1"><g transform="translate(181.070205, 271.433289)"><g><path d="M 1.703125 0 L 1.703125 -6.234375 L 5.109375 -6.234375 L 5.109375 -21.90625 L 1.703125 -21.90625 L 1.703125 -28.140625 L 25.46875 -28.140625 L 25.46875 -16.953125 L 20.9375 -16.953125 L 19.234375 -21.90625 L 14.15625 -21.90625 L 14.15625 -17.3125 L 18.6875 -17.3125 L 18.6875 -12.671875 L 14.15625 -12.671875 L 14.15625 -6.234375 L 19.234375 -6.234375 L 20.9375 -11.984375 L 25.46875 -11.984375 L 25.46875 0 Z M 1.703125 0 "/></g></g></g><g fill="#000000" fill-opacity="1"><g transform="translate(206.712503, 271.433289)"><g/></g></g><g fill="#000000" fill-opacity="1"><g transform="translate(214.174383, 271.433289)"><g><path d="M 0.578125 0 L 0.578125 -6.234375 L 3.375 -6.234375 L 8.21875 -21.90625 L 4.53125 -21.90625 L 4.53125 -28.140625 L 22.0625 -28.140625 L 28.328125 -6.234375 L 31.109375 -6.234375 L 31.109375 0 L 15.28125 0 L 15.28125 -6.234375 L 17.5625 -6.234375 L 16.8125 -9.234375 L 10.4375 -9.234375 L 9.640625 -6.234375 L 13 -6.234375 L 13 0 Z M 11.34375 -13.515625 L 15.96875 -13.515625 L 13.90625 -22.125 Z M 11.34375 -13.515625 "/></g></g></g><g fill="#000000" fill-opacity="1"><g transform="translate(245.289676, 271.433289)"><g><path d="M 2.28125 0 L 2.28125 -6.234375 L 5.109375 -6.234375 L 5.109375 -21.90625 L 2.28125 -21.90625 L 2.28125 -28.140625 L 16.984375 -28.140625 L 16.984375 -21.90625 L 14.15625 -21.90625 L 14.15625 -6.234375 L 16.984375 -6.234375 L 16.984375 0 Z M 2.28125 0 "/></g></g></g><g fill="#000000" fill-opacity="1"><g transform="translate(263.473467, 271.433289)"><g><path d="M 2.28125 -6.234375 L 5.109375 -6.234375 L 5.109375 -21.90625 L 2.28125 -21.90625 L 2.28125 -28.140625 L 20.359375 -28.140625 C 23.273438 -28.140625 25.421875 -27.546875 26.796875 -26.359375 C 28.171875 -25.179688 28.859375 -23.226562 28.859375 -20.5 C 28.859375 -18.664062 28.34375 -17.253906 27.3125 -16.265625 C 26.289062 -15.273438 24.84375 -14.609375 22.96875 -14.265625 C 24.65625 -14.003906 25.875 -13.367188 26.625 -12.359375 C 27.375 -11.359375 27.75 -10.113281 27.75 -8.625 L 27.75 -6.34375 L 31.6875 -6.34375 L 31.6875 0 L 26 0 C 24.164062 0 22.847656 -0.117188 22.046875 -0.359375 C 21.253906 -0.597656 20.644531 -1.257812 20.21875 -2.34375 C 19.800781 -3.4375 19.59375 -5.25 19.59375 -7.78125 C 19.59375 -9.226562 19.359375 -10.300781 18.890625 -11 C 18.421875 -11.707031 17.554688 -12.0625 16.296875 -12.0625 L 14.15625 -12.0625 L 14.15625 -6.234375 L 16.984375 -6.234375 L 16.984375 0 L 2.28125 0 Z M 16.59375 -16.078125 C 17.863281 -16.078125 18.8125 -16.304688 19.4375 -16.765625 C 20.070312 -17.222656 20.390625 -18.035156 20.390625 -19.203125 C 20.390625 -20.046875 20.066406 -20.707031 19.421875 -21.1875 C 18.785156 -21.664062 17.960938 -21.90625 16.953125 -21.90625 L 14.15625 -21.90625 L 14.15625 -16.078125 Z M 16.59375 -16.078125 "/></g></g></g><g fill="#000000" fill-opacity="1"><g transform="translate(146.091775, 291.990784)"><g><path d="M 3.9375 0 L 2.90625 0 L 2.90625 -7.9375 L 0.109375 -7.9375 L 0.109375 -8.84375 L 6.734375 -8.84375 L 6.734375 -7.9375 L 3.9375 -7.9375 Z M 3.9375 0 "/></g></g></g><g fill="#000000" fill-opacity="1"><g transform="translate(152.945937, 291.990784)"><g><path d="M 6.78125 -3.328125 C 6.78125 -2.242188 6.507812 -1.394531 5.96875 -0.78125 C 5.425781 -0.175781 4.675781 0.125 3.71875 0.125 C 3.125 0.125 2.597656 -0.015625 2.140625 -0.296875 C 1.679688 -0.578125 1.328125 -0.976562 1.078125 -1.5 C 0.828125 -2.019531 0.703125 -2.628906 0.703125 -3.328125 C 0.703125 -4.398438 0.96875 -5.238281 1.5 -5.84375 C 2.039062 -6.445312 2.789062 -6.75 3.75 -6.75 C 4.6875 -6.75 5.425781 -6.441406 5.96875 -5.828125 C 6.507812 -5.210938 6.78125 -4.378906 6.78125 -3.328125 Z M 1.734375 -3.328125 C 1.734375 -2.472656 1.898438 -1.820312 2.234375 -1.375 C 2.578125 -0.9375 3.078125 -0.71875 3.734375 -0.71875 C 4.390625 -0.71875 4.890625 -0.9375 5.234375 -1.375 C 5.578125 -1.820312 5.75 -2.472656 5.75 -3.328125 C 5.75 -4.171875 5.578125 -4.8125 5.234375 -5.25 C 4.890625 -5.6875 4.390625 -5.90625 3.734375 -5.90625 C 3.066406 -5.90625 2.566406 -5.6875 2.234375 -5.25 C 1.898438 -4.820312 1.734375 -4.179688 1.734375 -3.328125 Z M 1.734375 -3.328125 "/></g></g></g><g fill="#000000" fill-opacity="1"><g transform="translate(160.429254, 291.990784)"><g><path d="M 5.578125 -0.890625 L 5.53125 -0.890625 C 5.0625 -0.210938 4.363281 0.125 3.4375 0.125 C 2.570312 0.125 1.898438 -0.171875 1.421875 -0.765625 C 0.941406 -1.359375 0.703125 -2.203125 0.703125 -3.296875 C 0.703125 -4.390625 0.941406 -5.238281 1.421875 -5.84375 C 1.898438 -6.445312 2.570312 -6.75 3.4375 -6.75 C 4.34375 -6.75 5.035156 -6.421875 5.515625 -5.765625 L 5.59375 -5.765625 L 5.546875 -6.25 L 5.53125 -6.71875 L 5.53125 -9.40625 L 6.53125 -9.40625 L 6.53125 0 L 5.71875 0 Z M 3.5625 -0.71875 C 4.25 -0.71875 4.75 -0.90625 5.0625 -1.28125 C 5.375 -1.65625 5.53125 -2.253906 5.53125 -3.078125 L 5.53125 -3.296875 C 5.53125 -4.234375 5.375 -4.898438 5.0625 -5.296875 C 4.75 -5.703125 4.25 -5.90625 3.5625 -5.90625 C 2.96875 -5.90625 2.515625 -5.675781 2.203125 -5.21875 C 1.890625 -4.757812 1.734375 -4.113281 1.734375 -3.28125 C 1.734375 -2.4375 1.890625 -1.796875 2.203125 -1.359375 C 2.515625 -0.929688 2.96875 -0.71875 3.5625 -0.71875 Z M 3.5625 -0.71875 "/></g></g></g><g fill="#000000" fill-opacity="1"><g transform="translate(168.021464, 291.990784)"><g><path d="M 5.140625 0 L 4.9375 -0.9375 L 4.890625 -0.9375 C 4.554688 -0.53125 4.222656 -0.25 3.890625 -0.09375 C 3.566406 0.0507812 3.160156 0.125 2.671875 0.125 C 2.015625 0.125 1.5 -0.0390625 1.125 -0.375 C 0.75 -0.71875 0.5625 -1.203125 0.5625 -1.828125 C 0.5625 -3.171875 1.632812 -3.875 3.78125 -3.9375 L 4.90625 -3.96875 L 4.90625 -4.390625 C 4.90625 -4.910156 4.789062 -5.289062 4.5625 -5.53125 C 4.34375 -5.78125 3.988281 -5.90625 3.5 -5.90625 C 2.945312 -5.90625 2.320312 -5.738281 1.625 -5.40625 L 1.3125 -6.171875 C 1.632812 -6.347656 1.988281 -6.484375 2.375 -6.578125 C 2.769531 -6.679688 3.164062 -6.734375 3.5625 -6.734375 C 4.351562 -6.734375 4.9375 -6.554688 5.3125 -6.203125 C 5.695312 -5.859375 5.890625 -5.300781 5.890625 -4.53125 L 5.890625 0 Z M 2.875 -0.703125 C 3.5 -0.703125 3.988281 -0.875 4.34375 -1.21875 C 4.695312 -1.5625 4.875 -2.039062 4.875 -2.65625 L 4.875 -3.265625 L 3.875 -3.21875 C 3.082031 -3.1875 2.507812 -3.0625 2.15625 -2.84375 C 1.800781 -2.625 1.625 -2.285156 1.625 -1.828125 C 1.625 -1.460938 1.734375 -1.179688 1.953125 -0.984375 C 2.171875 -0.796875 2.476562 -0.703125 2.875 -0.703125 Z M 2.875 -0.703125 "/></g></g></g><g fill="#000000" fill-opacity="1"><g transform="translate(174.911924, 291.990784)"><g><path d="M 0.015625 -6.625 L 1.09375 -6.625 L 2.546875 -2.84375 C 2.859375 -1.988281 3.054688 -1.367188 3.140625 -0.984375 L 3.1875 -0.984375 C 3.238281 -1.179688 3.347656 -1.53125 3.515625 -2.03125 C 3.679688 -2.53125 4.226562 -4.0625 5.15625 -6.625 L 6.234375 -6.625 L 3.375 0.921875 C 3.09375 1.660156 2.765625 2.1875 2.390625 2.5 C 2.015625 2.820312 1.550781 2.984375 1 2.984375 C 0.695312 2.984375 0.394531 2.945312 0.09375 2.875 L 0.09375 2.0625 C 0.3125 2.113281 0.5625 2.140625 0.84375 2.140625 C 1.53125 2.140625 2.019531 1.753906 2.3125 0.984375 L 2.6875 0.03125 Z M 0.015625 -6.625 "/></g></g></g><g fill="#000000" fill-opacity="1"><g transform="translate(181.155075, 291.990784)"><g/></g></g><g fill="#000000" fill-opacity="1"><g transform="translate(184.373443, 291.990784)"><g><path d="M 2.0625 0 L 1.0625 0 L 1.0625 -6.625 L 2.0625 -6.625 Z M 0.984375 -8.421875 C 0.984375 -8.648438 1.035156 -8.816406 1.140625 -8.921875 C 1.253906 -9.035156 1.398438 -9.09375 1.578125 -9.09375 C 1.734375 -9.09375 1.867188 -9.035156 1.984375 -8.921875 C 2.109375 -8.816406 2.171875 -8.648438 2.171875 -8.421875 C 2.171875 -8.203125 2.109375 -8.035156 1.984375 -7.921875 C 1.867188 -7.804688 1.734375 -7.75 1.578125 -7.75 C 1.398438 -7.75 1.253906 -7.804688 1.140625 -7.921875 C 1.035156 -8.035156 0.984375 -8.203125 0.984375 -8.421875 Z M 0.984375 -8.421875 "/></g></g></g><g fill="#000000" fill-opacity="1"><g transform="translate(187.507118, 291.990784)"><g><path d="M 5.34375 -1.8125 C 5.34375 -1.195312 5.113281 -0.71875 4.65625 -0.375 C 4.195312 -0.0390625 3.550781 0.125 2.71875 0.125 C 1.832031 0.125 1.144531 -0.015625 0.65625 -0.296875 L 0.65625 -1.234375 C 0.976562 -1.066406 1.320312 -0.9375 1.6875 -0.84375 C 2.050781 -0.75 2.398438 -0.703125 2.734375 -0.703125 C 3.265625 -0.703125 3.671875 -0.785156 3.953125 -0.953125 C 4.234375 -1.117188 4.375 -1.375 4.375 -1.71875 C 4.375 -1.976562 4.257812 -2.195312 4.03125 -2.375 C 3.8125 -2.5625 3.378906 -2.78125 2.734375 -3.03125 C 2.109375 -3.257812 1.664062 -3.457031 1.40625 -3.625 C 1.144531 -3.800781 0.953125 -4 0.828125 -4.21875 C 0.703125 -4.4375 0.640625 -4.695312 0.640625 -5 C 0.640625 -5.539062 0.859375 -5.96875 1.296875 -6.28125 C 1.734375 -6.59375 2.335938 -6.75 3.109375 -6.75 C 3.828125 -6.75 4.523438 -6.601562 5.203125 -6.3125 L 4.84375 -5.5 C 4.175781 -5.769531 3.570312 -5.90625 3.03125 -5.90625 C 2.5625 -5.90625 2.203125 -5.832031 1.953125 -5.6875 C 1.710938 -5.539062 1.59375 -5.332031 1.59375 -5.0625 C 1.59375 -4.882812 1.640625 -4.734375 1.734375 -4.609375 C 1.828125 -4.484375 1.972656 -4.363281 2.171875 -4.25 C 2.367188 -4.144531 2.753906 -3.984375 3.328125 -3.765625 C 4.117188 -3.484375 4.648438 -3.195312 4.921875 -2.90625 C 5.203125 -2.613281 5.34375 -2.25 5.34375 -1.8125 Z M 5.34375 -1.8125 "/></g></g></g><g fill="#000000" fill-opacity="1"><g transform="translate(193.417548, 291.990784)"><g/></g></g><g fill="#000000" fill-opacity="1"><g transform="translate(196.635916, 291.990784)"><g><path d="M 5.140625 0 L 4.9375 -0.9375 L 4.890625 -0.9375 C 4.554688 -0.53125 4.222656 -0.25 3.890625 -0.09375 C 3.566406 0.0507812 3.160156 0.125 2.671875 0.125 C 2.015625 0.125 1.5 -0.0390625 1.125 -0.375 C 0.75 -0.71875 0.5625 -1.203125 0.5625 -1.828125 C 0.5625 -3.171875 1.632812 -3.875 3.78125 -3.9375 L 4.90625 -3.96875 L 4.90625 -4.390625 C 4.90625 -4.910156 4.789062 -5.289062 4.5625 -5.53125 C 4.34375 -5.78125 3.988281 -5.90625 3.5 -5.90625 C 2.945312 -5.90625 2.320312 -5.738281 1.625 -5.40625 L 1.3125 -6.171875 C 1.632812 -6.347656 1.988281 -6.484375 2.375 -6.578125 C 2.769531 -6.679688 3.164062 -6.734375 3.5625 -6.734375 C 4.351562 -6.734375 4.9375 -6.554688 5.3125 -6.203125 C 5.695312 -5.859375 5.890625 -5.300781 5.890625 -4.53125 L 5.890625 0 Z M 2.875 -0.703125 C 3.5 -0.703125 3.988281 -0.875 4.34375 -1.21875 C 4.695312 -1.5625 4.875 -2.039062 4.875 -2.65625 L 4.875 -3.265625 L 3.875 -3.21875 C 3.082031 -3.1875 2.507812 -3.0625 2.15625 -2.84375 C 1.800781 -2.625 1.625 -2.285156 1.625 -1.828125 C 1.625 -1.460938 1.734375 -1.179688 1.953125 -0.984375 C 2.171875 -0.796875 2.476562 -0.703125 2.875 -0.703125 Z M 2.875 -0.703125 "/></g></g></g><g fill="#000000" fill-opacity="1"><g transform="translate(203.526376, 291.990784)"><g/></g></g><g fill="#000000" fill-opacity="1"><g transform="translate(206.744745, 291.990784)"><g><path d="M 8.28125 -4.5 C 8.28125 -3.039062 7.882812 -1.925781 7.09375 -1.15625 C 6.300781 -0.382812 5.160156 0 3.671875 0 L 1.21875 0 L 1.21875 -8.84375 L 3.921875 -8.84375 C 5.296875 -8.84375 6.363281 -8.460938 7.125 -7.703125 C 7.894531 -6.941406 8.28125 -5.875 8.28125 -4.5 Z M 7.1875 -4.46875 C 7.1875 -5.625 6.894531 -6.492188 6.3125 -7.078125 C 5.738281 -7.660156 4.878906 -7.953125 3.734375 -7.953125 L 2.25 -7.953125 L 2.25 -0.890625 L 3.5 -0.890625 C 4.726562 -0.890625 5.648438 -1.191406 6.265625 -1.796875 C 6.878906 -2.398438 7.1875 -3.289062 7.1875 -4.46875 Z M 7.1875 -4.46875 "/></g></g></g><g fill="#000000" fill-opacity="1"><g transform="translate(215.776751, 291.990784)"><g><path d="M 5.140625 0 L 4.9375 -0.9375 L 4.890625 -0.9375 C 4.554688 -0.53125 4.222656 -0.25 3.890625 -0.09375 C 3.566406 0.0507812 3.160156 0.125 2.671875 0.125 C 2.015625 0.125 1.5 -0.0390625 1.125 -0.375 C 0.75 -0.71875 0.5625 -1.203125 0.5625 -1.828125 C 0.5625 -3.171875 1.632812 -3.875 3.78125 -3.9375 L 4.90625 -3.96875 L 4.90625 -4.390625 C 4.90625 -4.910156 4.789062 -5.289062 4.5625 -5.53125 C 4.34375 -5.78125 3.988281 -5.90625 3.5 -5.90625 C 2.945312 -5.90625 2.320312 -5.738281 1.625 -5.40625 L 1.3125 -6.171875 C 1.632812 -6.347656 1.988281 -6.484375 2.375 -6.578125 C 2.769531 -6.679688 3.164062 -6.734375 3.5625 -6.734375 C 4.351562 -6.734375 4.9375 -6.554688 5.3125 -6.203125 C 5.695312 -5.859375 5.890625 -5.300781 5.890625 -4.53125 L 5.890625 0 Z M 2.875 -0.703125 C 3.5 -0.703125 3.988281 -0.875 4.34375 -1.21875 C 4.695312 -1.5625 4.875 -2.039062 4.875 -2.65625 L 4.875 -3.265625 L 3.875 -3.21875 C 3.082031 -3.1875 2.507812 -3.0625 2.15625 -2.84375 C 1.800781 -2.625 1.625 -2.285156 1.625 -1.828125 C 1.625 -1.460938 1.734375 -1.179688 1.953125 -0.984375 C 2.171875 -0.796875 2.476562 -0.703125 2.875 -0.703125 Z M 2.875 -0.703125 "/></g></g></g><g fill="#000000" fill-opacity="1"><g transform="translate(222.667211, 291.990784)"><g><path d="M 0.015625 -6.625 L 1.09375 -6.625 L 2.546875 -2.84375 C 2.859375 -1.988281 3.054688 -1.367188 3.140625 -0.984375 L 3.1875 -0.984375 C 3.238281 -1.179688 3.347656 -1.53125 3.515625 -2.03125 C 3.679688 -2.53125 4.226562 -4.0625 5.15625 -6.625 L 6.234375 -6.625 L 3.375 0.921875 C 3.09375 1.660156 2.765625 2.1875 2.390625 2.5 C 2.015625 2.820312 1.550781 2.984375 1 2.984375 C 0.695312 2.984375 0.394531 2.945312 0.09375 2.875 L 0.09375 2.0625 C 0.3125 2.113281 0.5625 2.140625 0.84375 2.140625 C 1.53125 2.140625 2.019531 1.753906 2.3125 0.984375 L 2.6875 0.03125 Z M 0.015625 -6.625 "/></g></g></g></svg>